<svg width="32" height="32" viewBox="0 0 32 32" fill="none" xmlns="http://www.w3.org/2000/svg">
<g id="Icons / Oval + Icon">
<circle id="canvas oval" cx="16" cy="16" r="16" fill="white"/>
<mask id="mask0_0_183" style="mask-type:alpha" maskUnits="userSpaceOnUse" x="0" y="0" width="32" height="32">
<circle id="canvas oval_2" cx="16" cy="16" r="16" fill="white"/>
</mask>
<g mask="url(#mask0_0_183)">
<g id="icon">
<path id="fill" fill-rule="evenodd" clip-rule="evenodd" d="M18.8687 15.2L16.2343 12.5656C15.9219 12.2532 15.9219 11.7467 16.2343 11.4343C16.5468 11.1218 17.0533 11.1218 17.3657 11.4343L21.3657 15.4343C21.6781 15.7467 21.6781 16.2532 21.3657 16.5656L17.3657 20.5656C17.0533 20.8781 16.5468 20.8781 16.2343 20.5656C15.9219 20.2532 15.9219 19.7467 16.2343 19.4343L18.8687 16.8H11.2C10.7582 16.8 10.4 16.4418 10.4 16C10.4 15.5581 10.7582 15.2 11.2 15.2H18.8687Z" fill="#0B24FB"/>
<mask id="mask1_0_183" style="mask-type:alpha" maskUnits="userSpaceOnUse" x="10" y="11" width="12" height="10">
<path id="fill_2" fill-rule="evenodd" clip-rule="evenodd" d="M18.8687 15.2L16.2343 12.5656C15.9219 12.2532 15.9219 11.7467 16.2343 11.4343C16.5468 11.1218 17.0533 11.1218 17.3657 11.4343L21.3657 15.4343C21.6781 15.7467 21.6781 16.2532 21.3657 16.5656L17.3657 20.5656C17.0533 20.8781 16.5468 20.8781 16.2343 20.5656C15.9219 20.2532 15.9219 19.7467 16.2343 19.4343L18.8687 16.8H11.2C10.7582 16.8 10.4 16.4418 10.4 16C10.4 15.5581 10.7582 15.2 11.2 15.2H18.8687Z" fill="white"/>
</mask>
<g mask="url(#mask1_0_183)">
</g>
</g>
</g>
</g>
</svg>
